<?xml version="1.0" encoding="UTF-8"?> <svg xmlns="http://www.w3.org/2000/svg" width="24" height="24" viewBox="0 0 24 24" fill="none"><path fill-rule="evenodd" clip-rule="evenodd" d="M20.4518 20.4507H16.8929V14.88C16.8929 13.552 16.8689 11.844 15.0422 11.844C13.1914 11.844 12.9087 13.292 12.9087 14.7853V20.4507H9.35252V8.99733H12.7634V10.5627H12.8127C13.2887 9.66267 14.4488 8.71333 16.1809 8.71333C19.7864 8.71333 20.4518 11.084 20.4518 14.1693V20.4507ZM5.33896 7.43333C4.1949 7.43333 3.27218 6.508 3.27218 5.368C3.27218 4.22933 4.1949 3.304 5.33896 3.304C6.47636 3.304 7.40174 4.22933 7.40174 5.368C7.40174 6.508 6.47636 7.43333 5.33896 7.43333ZM3.55486 20.4507H7.11906V8.99733H3.55486V20.4507ZM22.2239 0H1.76943C0.793377 0 0 0.774667 0 1.73067V22.268C0 23.224 0.793377 24 1.76943 24H22.2239C23.2026 24 24 23.224 24 22.268V1.73067C24 0.774667 23.2026 0 22.2239 0Z" fill="black"></path></svg> 