<svg width="62" height="50" viewBox="0 0 62 50" fill="none" xmlns="http://www.w3.org/2000/svg">
<path d="M35.6724 49V49.5H36.1724H59.1379H59.6379V49V24.1724V23.6724H59.1379H50.5345V21.2759C50.5345 17.791 51.1555 15.66 52.6626 14.3616C54.1944 13.0419 56.7676 12.4655 61 12.4655H61.5V11.9655V1V0.5H61H56.8621C47.6954 0.5 41.2496 2.99934 38.2192 8.41046C36.287 11.8456 35.6724 16.104 35.6724 24.7931V49ZM0.5 49V49.5H1H23.9655H24.4655V49V24.1724V23.6724H23.9655H15.3621V21.2759C15.3621 17.6827 15.9851 15.5598 17.5097 14.2893C19.0657 12.9926 21.6892 12.4655 26.0345 12.4655H26.5345V11.9655V1V0.5H26.0345H21.6897C12.5229 0.5 6.07722 2.99934 3.04674 8.41046C1.1149 11.8451 0.5 15.8956 0.5 24.7931V49Z" stroke="#F2673A"/>
</svg>
